<svg viewBox="0 0 2047 2037" version="1.1" xmlns="http://www.w3.org/2000/svg" xmlns:xlink="http://www.w3.org/1999/xlink">
    <defs></defs>
    <g id="Page-1" stroke="none" stroke-width="1" fill="none" fill-rule="evenodd">
        <g id="Artboard-Copy">
            <g id="SVG-Loco">
                <path d="M234.039904,965.307105 L139.671463,955.388582 C90.0180183,987.815511 43.6065166,1023.15685 0.955472302,1061.46994 L129.298731,1074.95936 C164.721989,1045.2723 202.555227,1016.80767 242.481888,989.655466 L234.039904,965.307105 Z M272.874372,969.388772 L273.022377,969.404328 C271.509141,970.382818 269.998626,971.363148 268.490876,972.345296 L272.874372,969.388772 Z M754.893676,720.129523 L796.041699,734.297924 C738.188638,751.512256 681.392456,770.828961 626.100687,792.120815 L556.80767,768.261316 C620.947396,749.314198 687.16312,733.291036 754.893676,720.129523 Z M1880.7219,774.113428 L1901.30556,816.316199 C1871.11547,815.066581 1841.39749,815.024361 1812.18143,816.078407 L1788.96706,768.481905 C1819.4114,769.070745 1849.97613,770.950217 1880.7219,774.113428 Z M1703.44543,770.244497 L1748.38379,820.153604 C1711.60866,823.526603 1675.70831,828.593254 1640.74705,835.113776 L1593.52931,782.673162 C1630.14683,776.616019 1666.74953,772.477224 1703.44543,770.244497 Z M1498.41396,802.702824 L1571.50525,850.168859 C1528.22467,860.925115 1486.56737,873.817332 1446.66995,888.336179 L1374.52879,841.487179 C1416.06053,826.130463 1457.30507,813.208086 1498.41396,802.702824 Z M2025.97058,798.219428 L2031.98333,829.152327 C2007.36149,825.331701 1983.00297,822.346558 1958.92205,820.143643 L1951.82976,783.656964 C1976.39103,787.712775 2001.09461,792.568059 2025.97049,798.219407 L2025.97058,798.219428 Z M990.493385,1044.81357 L1125.02657,1058.95358 C1073.99036,1095.6898 1030.56765,1132.47592 995.642432,1166.01578 L844.274881,1150.10638 C893.989871,1112.13624 942.667143,1077.04568 990.493541,1044.81347 L990.493385,1044.81357 Z M1254.57339,892.183047 L1353.73861,926.328368 C1305.898,948.078361 1261.18818,971.864733 1219.9051,996.584078 L1121.28418,962.626165 C1166.29471,936.481647 1210.66764,913.007066 1254.57339,892.183047 Z" id="Combined-Shape" fill="#CA0707" fill-rule="nonzero"></path>
                <g id="Logo-Copy" transform="translate(1127.584373, 546.953928) rotate(-1.000000) translate(-1127.584373, -546.953928) translate(233.584373, 15.953928)">
                    <g id="Path-1-Copy-6" opacity="0.98999995" transform="translate(23.000000, 0.000000)">
                        <g id="path-1-link" transform="translate(13.000000, 13.000000)" fill="#CC0000">
                            <path d="M787.197737,283.879299 C839.347577,316.838176 1117.26944,436.033599 1131.99533,444.326268 C1146.72122,452.618938 1831.05383,680.811336 1729.18991,705.060173 C1309.83921,661.062918 1083.29332,728.113881 853.528555,845.967138 C623.763787,963.820395 549.212743,1071.50905 77.51411,1025.46465 C-78.4950606,705.060147 29.0949964,436.309279 156.669488,399.033124 C160.389397,393.490067 88.123767,337.969987 75.960475,267.061982 C350.117468,-282.720904 929.132796,183.869438 1107.18626,203.847129 C1091.31565,251.676947 851.420262,288.482221 787.197737,283.879299 Z" id="path-1"></path>
                        </g>
                        <path d="M1718.90768,700.246155 C1524.97055,681.847417 1368.94595,686.552019 1230.40996,712.690169 C1102.53957,736.815996 989.99329,778.33463 859.501696,845.267691 C831.250973,859.758336 805.354536,873.981817 769.726189,894.26149 C765.263515,896.801646 737.166237,912.854116 729.171536,917.391332 C714.015109,925.993028 701.773217,932.819001 690.01675,939.185403 C611.489911,981.709528 548.91534,1005.63806 468.218846,1020.03125 C373.604248,1036.90691 256.675857,1038.73375 100.62836,1023.96942 C32.991646,881.476162 14.1205323,740.618966 38.8199401,622.219954 C60.388362,518.829627 114.212405,444.277464 173.987647,426.811659 L179.344228,425.246513 L182.453953,420.612695 C184.977524,416.852308 185.605052,412.737278 184.995592,408.873039 C184.664055,406.770953 184.012759,404.9699 183.133563,403.225213 C182.152369,401.278124 180.902567,399.452444 179.245463,397.351008 C177.136213,394.676189 174.773629,392.01246 169.345142,386.07169 C155.448871,370.864039 149.134513,363.625109 140.747878,352.668264 C122.435949,328.744368 110.072333,305.442014 105.072286,282.293004 C159.54555,174.895915 227.772328,104.114038 308.790464,65.2201049 C381.082926,30.5150578 463.217788,21.2571688 555.870849,33.8765268 C604.873059,40.5506336 656.338161,53.261587 711.465358,71.6151479 C757.399686,86.9081165 804.286242,105.493958 858.9263,129.413265 C884.231553,140.490927 983.93316,185.878551 1007.05187,195.828299 C1040.45904,210.205955 1066.65428,220.118594 1088.29187,226.059773 C1082.38342,229.297249 1075.21309,232.579784 1066.89504,235.847009 C1043.43537,245.061669 1011.70477,253.831383 975.178759,261.453688 C933.289139,270.195279 865.830577,279.430276 772.803072,289.15868 L772.803073,289.158682 C770.056627,289.445893 768.063024,291.905158 768.350235,294.651604 C768.52196,296.293719 769.493271,297.745191 770.945771,298.530223 L791.972176,309.894358 C813.067362,323.226587 867.467978,349.356679 950.961805,387.160936 C954.707604,388.856955 958.509717,390.575381 962.370726,392.317468 C995.91798,407.453985 1010.55682,413.973341 1079.19798,444.446756 C1118.4479,461.871858 1134.6816,469.188154 1137.44056,470.741819 C1140.26278,472.33111 1147.93194,475.170518 1169.25559,482.768686 C1180.4654,486.763029 1235.20723,506.111648 1238.55434,507.297008 C1317.35421,535.203577 1380.4969,558.002099 1443.23766,581.509371 C1462.8622,588.862155 1481.7231,596.021185 1499.79904,602.984874 C1584.9309,635.781612 1650.5847,663.435638 1692.47736,684.766449 C1703.42264,690.339538 1773.05953,718.9179 1718.90768,700.246155 Z" id="Shape" stroke="#FFFFFF" stroke-width="30.79296"></path>
                        <path d="M846.679876,307.968339 C885.167638,305.049006 935.078684,297.989521 980.81154,288.445918 C1018.72945,280.533149 1051.86479,271.375195 1076.97587,261.511877 C1107.58558,249.488768 1126.43568,236.679461 1131.74383,220.682096 L1131.74383,220.682092 L1131.74383,220.682092 C1133.86183,214.299021 1130.4043,207.407547 1124.02123,205.289552 C1123.21667,205.022589 1122.38644,204.840365 1121.54403,204.745847 L1121.54403,204.745847 C1098.32149,202.140265 1066.17513,191.25463 1017.9523,170.500656 C995.16221,160.692339 895.566225,115.352801 869.983898,104.153846 C814.637246,79.9252197 767.013125,61.0470072 720.175456,45.4532885 C663.524525,26.5924292 610.431615,13.4794366 559.592034,6.55507947 C461.937567,-6.7454705 374.442073,3.11664603 296.857165,40.3624082 C208.865523,82.6040749 135.532576,159.380799 78.063025,274.627815 L76.2849046,278.193583 L76.9585553,282.120746 C82.078799,311.970089 96.7893,340.603569 118.852089,369.427831 C127.876133,381.217429 134.568126,388.88929 148.989717,404.671835 C86.376393,433.850718 33.5026703,512.686144 11.8273326,616.588982 C-14.5979321,743.261058 6.283559,893.29189 79.565769,1043.79554 L82.548934,1049.92223 L89.331066,1050.58426 C252.026714,1066.46564 373.950887,1064.85394 473.060535,1047.17654 C556.961365,1032.21182 622.214531,1007.25899 703.146952,963.432186 C715.087296,956.96621 727.47901,950.056698 742.781346,941.372195 C750.817862,936.811247 778.936199,920.746746 783.366304,918.225129 C818.676753,898.126403 844.257529,884.076297 872.086161,869.802155 C1000.37799,803.997421 1110.49361,763.375461 1235.5222,739.785808 C1378.17131,712.87162 1540.262,709.118442 1740.91928,730.170915 C1754.95586,727.538717 1761.90252,723.048047 1764.12331,714.690881 C1766.26932,706.615129 1762.80046,699.516987 1756.02707,692.64514 C1747.13728,683.626121 1730.13643,672.999278 1704.98877,660.194651 C1662.03213,638.322083 1595.67005,610.369725 1509.71156,577.25453 C1491.55333,570.259139 1472.61345,563.07013 1452.91203,555.688541 C1389.98396,532.111089 1326.70285,509.262589 1247.75924,481.305114 C1244.37988,480.108331 1189.68162,460.775115 1178.51081,456.794666 C1169.41411,453.553277 1132.71177,438.035466 1090.38637,419.244996 C1021.80518,388.798207 1007.18628,382.287731 973.711069,367.18372 C969.860891,365.44652 966.069752,363.733053 962.335097,362.04208 C913.394127,339.882634 874.347207,321.670124 846.679876,307.968339 Z" id="Shape" stroke="#C50000" stroke-width="24.3544315"></path>
                    </g>
                    <path d="M212.320136,411.781949 C281.497114,471.651694 477.767383,413.751913 635.752854,395.739046 C691.867085,389.341127 746.03462,395.097586 784.570521,417.781036 C797.167468,424.589457 820.462259,434.171577 820.462259,464.809477 C425.775494,269.95731 531.877121,1047.24593 123.911191,1025.01938 C616.420818,1076.91244 496.366198,483.319597 844.085699,469.581515 C855.460815,469.581513 1004.46431,448.645608 1166.45527,473.807987" id="Path-9" stroke="#FFFFFF" stroke-width="30.79296" stroke-linecap="round" stroke-linejoin="round"></path>
                    <path d="M133.7894,273.495651 C161.241948,236.541438 221.689277,136.760269 631.919494,321.696293 C756.7613,142.703032 977.489535,307.027645 1093.01535,227.098084" id="Path-5" stroke="#FFFFFF" stroke-width="32.752512" stroke-linecap="round" stroke-linejoin="round"></path>
                    <path d="M520.59458,28.2104843 C350.009848,32.5335649 268.742614,145.239658 321.944742,399.893926 C247.991381,419.138242 112.39205,586.504019 137.284157,1024.94725" id="Path-6" stroke="#FFFFFF" stroke-width="30.233088" stroke-linecap="round" stroke-linejoin="round"></path>
                    <g id="Światło" transform="translate(277.941523, 322.995126) scale(-1, 1) translate(-277.941523, -322.995126) translate(0.441523, 44.995126)">
                        <ellipse id="Oval-2" cx="243.196433" cy="281.198658" rx="79.0191216" ry="85.8518828"></ellipse>
                        <ellipse id="Oval-2-Copy" stroke="#AF2D2B" stroke-width="20.2032611" fill="#BC3330" fill-rule="nonzero" cx="260.718278" cy="281.198658" rx="79.0191216" ry="85.8518828"></ellipse>
                        <ellipse id="Oval-2-Copy-2" fill="#FFFFFF" fill-rule="nonzero" cx="265.582628" cy="281.198658" rx="79.0191216" ry="85.8518828"></ellipse>
                        <polygon id="Star-1" fill="#FFFFFF" fill-rule="nonzero" transform="translate(260.300460, 281.442851) rotate(-2.000000) translate(-260.300460, -281.442851) " points="260.300461 292.978111 127.734387 401.751994 247.590003 281.442851 127.734387 161.133707 260.300461 269.90759 392.866534 161.133707 273.010918 281.442851 392.866534 401.751994"></polygon>
                        <polygon id="Star-1-Copy" fill="#FFFFFF" fill-rule="nonzero" opacity="0.786089086" transform="translate(277.445944, 278.004551) rotate(-45.000000) translate(-277.445944, -278.004551) " points="277.445944 301.174064 76.9035488 469.361729 253.164286 278.004551 76.9035488 86.6473733 277.445944 254.835038 477.98834 86.6473733 301.727603 278.004551 477.98834 469.361729"></polygon>
                    </g>
                </g>
                <g id="loco-copy-2" transform="translate(19.000000, 1077.000000)" font-size="800" font-family="Phosphate-Inline, Phosphate" fill="#FFFFFF" font-weight="normal">
                    <text id="loco">
                        <tspan x="0" y="752">loco</tspan>
                    </text>
                </g>
                <g id="loco-copy" transform="translate(19.000000, 1077.000000)" font-size="800" font-family="Phosphate-Inline, Phosphate" fill="#CC0000" font-weight="normal">
                    <text id="loco">
                        <tspan x="0" y="752">loco</tspan>
                    </text>
                </g>
            </g>
        </g>
    </g>
</svg>